<svg width="40" height="40" viewBox="0 0 40 40" fill="none" xmlns="http://www.w3.org/2000/svg">
  <rect width="40" height="40" rx="8" fill="#F2F0FF" />
  <path d="M22.333 22.8579C22.7248 22.126 23.5993 21 25.81 21C28.0626 21 28.9441 22.547 28.9441 23.6448V30"
    stroke="#3A424C" stroke-width="2" stroke-linecap="round" stroke-linejoin="round" />
  <path
    d="M28.4338 26.7981C28.9751 26.9073 29.5026 26.557 29.6118 26.0157C29.7211 25.4743 29.3708 24.9469 28.8294 24.8376L28.4338 26.7981ZM28.6316 31C29.1839 31 29.6316 30.5523 29.6316 30C29.6316 29.4477 29.1839 29 28.6316 29V31ZM28.8294 24.8376L28.6587 24.8031L28.263 26.7636L28.4338 26.7981L28.8294 24.8376ZM21 27.5465C21 28.6058 21.1893 29.5608 21.8459 30.2168C22.5076 30.8777 23.4097 31 24.2105 31V29C23.5376 29 23.3345 28.8769 23.2594 28.8018C23.1792 28.7217 23 28.45 23 27.5465H21ZM24.2105 31H28.6316V29H24.2105V31ZM28.6587 24.8031C27.3472 24.5385 25.5941 24.2906 24.1269 24.4912C23.3926 24.5916 22.6201 24.8179 22.0145 25.3117C21.364 25.8422 21 26.6056 21 27.5465H23C23 27.1705 23.121 26.9901 23.2784 26.8617C23.4809 26.6966 23.8396 26.5491 24.3978 26.4728C25.5156 26.32 26.993 26.5073 28.263 26.7636L28.6587 24.8031Z"
    fill="#3A424C" />
  <path d="M11 29L18.9553 12L21.8069 18.5" stroke="#3A424C" stroke-width="2" stroke-linecap="round"
    stroke-linejoin="round" />
  <path
    d="M14.7778 21.3889C14.2255 21.3889 13.7778 21.8366 13.7778 22.3889C13.7778 22.9412 14.2255 23.3889 14.7778 23.3889L14.7778 21.3889ZM19.0005 23.3889C19.5528 23.3889 20.0005 22.9412 20.0005 22.3889C20.0005 21.8366 19.5528 21.3889 19.0005 21.3889L19.0005 23.3889ZM14.7778 23.3889L19.0005 23.3889L19.0005 21.3889L14.7778 21.3889L14.7778 23.3889Z"
    fill="#3A424C" />
</svg>
